M48
; DRILL file {KiCad (6.0.9)} date Sun Jan  8 11:05:24 2023
; FORMAT={-:-/ absolute / inch / decimal}
; #@! TF.CreationDate,2023-01-08T11:05:24-08:00
; #@! TF.GenerationSoftware,Kicad,Pcbnew,(6.0.9)
; #@! TF.FileFunction,MixedPlating,1,2
FMAT,2
INCH
; #@! TA.AperFunction,Plated,PTH,ComponentDrill
T1C0.0276
; #@! TA.AperFunction,Plated,PTH,ComponentDrill
T2C0.0315
; #@! TA.AperFunction,Plated,PTH,ComponentDrill
T3C0.0394
; #@! TA.AperFunction,Plated,PTH,ComponentDrill
T4C0.0433
; #@! TA.AperFunction,NonPlated,NPTH,ComponentDrill
T5C0.0866
%
G90
G05
T1
X4.05Y-4.802
X4.05Y-5.002
X4.25Y-4.8
X4.25Y-5.0
X4.45Y-4.8
X4.45Y-5.0
X4.65Y-4.8
X4.65Y-5.0
X5.5Y-3.8
X5.5Y-4.2
X5.5Y-4.6
X5.7Y-3.8
X5.7Y-4.2
X5.7Y-4.6
T2
X4.95Y-2.3787
X5.0465Y-2.8606
X5.0465Y-2.9394
X5.05Y-2.3787
X5.1253Y-2.8606
X5.1253Y-2.9394
X5.204Y-2.8606
X5.204Y-2.9394
X6.0Y-2.3516
X6.0Y-2.5484
T3
X4.0Y-2.85
X4.0Y-2.95
X4.0Y-3.05
X4.0Y-3.15
X4.0Y-3.25
X4.0Y-3.35
X4.05Y-4.3998
X4.05Y-4.4998
X4.15Y-4.3998
X4.15Y-4.4998
X4.25Y-4.3998
X4.25Y-4.4998
X4.2998Y-3.675
X4.2998Y-3.775
X4.2998Y-3.875
X4.2998Y-3.975
X4.35Y-4.3998
X4.35Y-4.4998
X4.35Y-5.2
X4.35Y-5.3
X4.35Y-5.4
X4.35Y-5.5
X4.3998Y-3.675
X4.3998Y-3.775
X4.3998Y-3.875
X4.3998Y-3.975
X4.4Y-2.85
X4.4Y-2.95
X4.4Y-3.05
X4.4Y-3.15
X4.4Y-3.25
X4.4Y-3.35
X4.45Y-4.3998
X4.45Y-4.4998
X4.55Y-4.3998
X4.55Y-4.4998
X4.65Y-5.2
X4.65Y-5.3
X4.65Y-5.4
X4.65Y-5.5
X5.0Y-5.0494
X5.0Y-5.1494
X5.0Y-5.2494
X5.2Y-5.05
X5.2Y-5.15
X5.2Y-5.25
X5.5Y-3.1996
X5.5Y-3.2996
X5.5Y-3.3996
X5.5Y-3.4996
X5.6Y-2.45
X5.6Y-2.55
X5.6Y-2.65
X5.6Y-2.75
X5.6Y-2.85
X5.6Y-2.95
X5.7Y-3.1996
X5.7Y-3.2996
X5.7Y-3.3996
X5.7Y-3.4996
X6.2303Y-2.5
X6.2303Y-3.24
X6.3303Y-2.5
X6.3303Y-3.24
X6.68Y-3.24
X6.6803Y-2.5
X6.75Y-4.3
X6.75Y-4.4
X6.75Y-4.5
X6.75Y-4.6
X6.75Y-4.7
X6.75Y-4.8
X6.78Y-3.24
X6.7803Y-2.5
X6.8Y-3.6
X6.8Y-3.7
T4
X4.7Y-2.35
X4.7Y-2.45
X4.7Y-2.55
X4.7Y-2.65
X4.7Y-2.75
X4.7Y-2.85
X4.7Y-2.95
X4.7Y-3.05
X4.7Y-3.15
X4.7Y-3.25
X4.7Y-3.35
X4.7Y-3.45
X4.7Y-3.55
X4.7Y-3.65
X4.7Y-3.75
X4.7Y-3.85
X4.7Y-3.95
X4.7Y-4.05
X4.7Y-4.15
X4.7Y-4.25
X4.7Y-4.35
X4.7Y-4.45
X4.7Y-4.55
X4.7Y-4.65
X4.8Y-4.15
X4.8201Y-2.598
X4.8201Y-2.698
X4.8201Y-2.798
X4.8201Y-2.898
X4.8201Y-2.998
X4.9Y-4.15
X5.0Y-4.15
X5.1Y-4.15
X5.2Y-2.45
X5.2Y-4.15
X5.3Y-2.35
X5.3Y-2.45
X5.3Y-2.55
X5.3Y-2.65
X5.3Y-2.75
X5.3Y-2.85
X5.3Y-2.95
X5.3Y-3.05
X5.3Y-3.15
X5.3Y-3.25
X5.3Y-3.35
X5.3Y-3.45
X5.3Y-3.55
X5.3Y-3.65
X5.3Y-3.75
X5.3Y-3.85
X5.3Y-3.95
X5.3Y-4.05
X5.3Y-4.15
X5.3Y-4.25
X5.3Y-4.35
X5.3Y-4.45
X5.3Y-4.55
X5.3Y-4.65
X5.9Y-3.8
X5.9Y-4.2
X5.9Y-4.6
X6.0Y-3.8
X6.0Y-4.2
X6.0Y-4.6
X6.1Y-3.8
X6.1Y-4.2
X6.1Y-4.6
T5
X3.95Y-2.3
X3.95Y-5.5
X6.95Y-2.3
X6.95Y-5.5
T0
M30
